<?xml version="1.0" encoding="utf-8"?>
<!-- Generator: Adobe Illustrator 21.0.2, SVG Export Plug-In . SVG Version: 6.00 Build 0)  -->
<svg version="1.1" id="Layer_1" xmlns="http://www.w3.org/2000/svg" xmlns:xlink="http://www.w3.org/1999/xlink" x="0px" y="0px"
	 viewBox="0 0 300 300" style="enable-background:new 0 0 300 300;" xml:space="preserve">
<style type="text/css">
	.st0{fill:#29ABE2;}
	.st2{fill:#FFFFFF;stroke:#FFFFFF;stroke-miterlimit:10;}
	.st3{opacity:0;fill:#4D4D4D;}
</style>
<circle id="bkg" class="st0" cx="149.5" cy="149.5" r="120"/>
<g>
	<path id="headphone" fill="#ffffff" d="M239,169.7v22.4c0,12.1-9.9,22-22,21.9c-6,0-10.9-5-10.9-11.1v-65.6c0-30.5-24.4-55.8-54.9-56
		c-30.7-0.2-55.7,24.6-55.7,55.3v66.5c0,6-4.9,11-10.9,11.1c-12.5,0.1-22.6-9.9-22.6-22.4V170c0-12.3,10-22.4,22.4-22.4v-10.3
		c0-34.9,26.7-64.4,61.5-66.9c38.9-2.8,71.4,28,71.4,66.3V148C229.3,148,239,157.7,239,169.7z"/>
</g>
<g id="wave" fill="#ffffff">
	<path id="w1" d="M116,210.6L116,210.6c-2.2,0-4-1.8-4-4v-56c0-2.2,1.8-4,4-4h0c2.2,0,4,1.8,4,4v56
		C120,208.8,118.2,210.6,116,210.6z"/>
	<path id="w2"  d="M135,210.6L135,210.6c-2.2,0-4-1.8-4-4v-56c0-2.2,1.8-4,4-4l0,0c2.2,0,4,1.8,4,4v56
		C139,208.8,137.2,210.6,135,210.6z"/>
	<path id="w3"  d="M151,210.6L151,210.6c-2.2,0-4-1.8-4-4v-56c0-2.2,1.8-4,4-4l0,0c2.2,0,4,1.8,4,4v56
		C155,208.8,153.2,210.6,151,210.6z"/>
	<path id="w4"  d="M168,210.6L168,210.6c-2.2,0-4-1.8-4-4v-56c0-2.2,1.8-4,4-4l0,0c2.2,0,4,1.8,4,4v56
		C172,208.8,170.2,210.6,168,210.6z"/>
	<path id="w5" d="M186,210.6L186,210.6c-2.2,0-4-1.8-4-4v-56c0-2.2,1.8-4,4-4l0,0c2.2,0,4,1.8,4,4v56
		C190,208.8,188.2,210.6,186,210.6z"/>
</g>
<circle id="cover" class="st3" cx="150" cy="150" r="120"/>
</svg>
